<svg xmlns="http://www.w3.org/2000/svg" viewBox="0 0 30 30"><path d="M15,0A15,15,0,0,0,9.5,29a14.3,14.3,0,0,1,.1-4.3l1.8-7.5a5.4,5.4,0,0,1-.4-2.2c0-2.1,1.2-3.6,2.7-3.6a1.9,1.9,0,0,1,1.9,2.1c0,1.3-.8,3.2-1.2,5a2.2,2.2,0,0,0,2.2,2.7c2.7,0,4.7-2.8,4.7-6.9a5.9,5.9,0,0,0-6.3-6.1,6.5,6.5,0,0,0-6.8,6.5,5.8,5.8,0,0,0,1.1,3.4,0.5,0.5,0,0,1,.1.4L9,20.2c-0.1.3-.2,0.3-0.5,0.2-1.9-.9-3-3.6-3-5.8,0-4.7,3.4-9.1,9.9-9.1s9.2,3.7,9.2,8.7-3.3,9.3-7.8,9.3a4,4,0,0,1-3.4-1.7l-0.9,3.6a16.7,16.7,0,0,1-1.9,3.9A15,15,0,1,0,15,0" fill="#fff"/></svg>