<svg xmlns="http://www.w3.org/2000/svg" viewBox="0 0 29.9 29.9"><path d="M15,7.3A7.7,7.7,0,1,0,22.7,15,7.7,7.7,0,0,0,15,7.3ZM15,20a5,5,0,1,1,5-5A5,5,0,0,1,15,20ZM21.1,2.8C25,3,27,5,27.1,8.9h0c0.1,1.5.1,10.5,0,12.1h0c-0.1,3.9-2,5.8-6,6H8.9c-3.9-.2-5.8-2.1-6-6h0C2.8,19.5,2.8,10.5,2.9,9h0C3,5,4.9,3,8.9,2.8H21.1M21.2,0H8.8C3.4,0.3.3,3.4,0.1,8.8,0,10.4,0,19.6.1,21.2c0.2,5.4,3.3,8.5,8.7,8.7H21.2c5.4-.3,8.5-3.3,8.7-8.7,0.1-1.6.1-10.8,0-12.4C29.7,3.4,26.6.2,21.2,0h0ZM23,5.2A1.8,1.8,0,1,0,24.8,7h0A1.8,1.8,0,0,0,23,5.2" fill="#ffffff"/></svg>