<?xml version="1.0" encoding="utf-8"?>
<!-- Generator: Adobe Illustrator 22.1.0, SVG Export Plug-In . SVG Version: 6.00 Build 0)  -->
<svg version="1.1" id="Layer_1" xmlns="http://www.w3.org/2000/svg" xmlns:xlink="http://www.w3.org/1999/xlink" x="0px" y="0px"
	 viewBox="0 0 240.9 155.9" style="enable-background:new 0 0 240.9 155.9;" xml:space="preserve">
<style type="text/css">
	.st0{fill:#D72027;}
	.st1{fill:#FFFFFF;}
</style>
<path class="st0" d="M170.9,105.6H67l0-46.9c0-8.5,7-15.5,15.5-15.5h88.5V105.6z"/>
<polygon class="st1" points="82.5,70 90.7,70 90.7,84.8 98.1,84.8 98.1,70 106.4,70 106.4,64 82.5,64 "/>
<path class="st1" d="M120.9,80.5c-1.7,0-3-0.5-4.1-1.5c-1.1-1-1.8-2.5-1.8-4.6v-0.3c0-2.1,0.8-3.6,1.8-4.6c1.1-1,2.4-1.5,4.1-1.5
	c4,0,4.9,2.4,5.2,4h6.6c-0.2-3.2-1.7-5.4-3.8-6.9c-2.1-1.5-4.6-2.2-7.8-2.2c-4,0-6.9,0.9-9.2,2.9c-2.4,2-3.6,5.2-3.6,8.4v0.2
	c0,3.5,1.1,6.1,3.5,8.3c2.3,2.1,5.6,3,9.2,3c3.3,0,6-0.8,8-2.2c2.1-1.6,3.6-3.9,3.8-6.9h-6.5C125.9,77.8,125.1,80.5,120.9,80.5"/>
<polygon class="st1" points="143.7,79.1 143.7,64 136.6,64 136.6,84.8 155.4,84.8 155.4,79.1 "/>
</svg>
