<svg xmlns="http://www.w3.org/2000/svg" viewBox="0 0 175 48.9"><title>tcl</title><path d="M0,0H81.4V36.7A12.2,12.2,0,0,1,69.3,48.9H0V0Z" fill="#e30613"/><path d="M12.1,16.3H30.9V21H24.4V32.6H18.6V21H12.1V16.3ZM42.2,29.2A4.4,4.4,0,0,1,39,28a4.8,4.8,0,0,1-1.4-3.6V24.2A4.8,4.8,0,0,1,39,20.6a4.4,4.4,0,0,1,3.2-1.2c3.2,0,3.8,1.9,4,3.1h5.1a6.7,6.7,0,0,0-3-5.4,10.3,10.3,0,0,0-6.1-1.7c-3.1,0-5.4.7-7.2,2.3a8.7,8.7,0,0,0-2.8,6.6h0A8.2,8.2,0,0,0,35,30.9a10.6,10.6,0,0,0,7.2,2.3,10.4,10.4,0,0,0,6.3-1.7,7,7,0,0,0,2.9-5.4H46.3c-0.1,1-.8,3.1-4.1,3.1m17.9-1.1V16.3H54.5V32.6H69.2V28.1H60.1Z" fill="#fff"/><path d="M96.8,21.7v6.7H95.9V21.7H93.6V21H99v0.7H96.8Zm29.5,4.2V26c0,1.1.5,1.7,1.4,1.7a4.1,4.1,0,0,0,1.8-.5l0.2,0.5a3.9,3.9,0,0,1-2.2.7c-1.2,0-2-1-2-2.5s0.8-2.9,2.2-2.9,2.1,0.8,2.1,2.5v0.3h-3.5Zm1.4-2.1a1.4,1.4,0,0,0-1.4,1.6h2.6C128.9,24.2,128.4,23.7,127.7,23.7Zm-21.3,2.1V26c0,1.1.5,1.7,1.4,1.7a4.1,4.1,0,0,0,1.8-.5l0.2,0.5a3.9,3.9,0,0,1-2.2.7c-1.2,0-2-1-2-2.5s0.8-2.9,2.2-2.9,2.1,0.8,2.1,2.5v0.3h-3.5Zm1.4-2.1a1.4,1.4,0,0,0-1.4,1.6H109C109,24.2,108.5,23.7,107.8,23.7Zm42,2.1V26c0,1.1.5,1.7,1.4,1.7a4.1,4.1,0,0,0,1.8-.5l0.2,0.5a3.9,3.9,0,0,1-2.2.7c-1.2,0-2-1-2-2.5s0.8-2.9,2.2-2.9,2.1,0.8,2.1,2.5v0.3h-3.5Zm1.4-2.1a1.4,1.4,0,0,0-1.4,1.6h2.6C152.4,24.2,151.9,23.7,151.2,23.7Zm20.4,2.2v0.2c0,1.1.5,1.7,1.4,1.7a4.1,4.1,0,0,0,1.8-.5l0.2,0.5a3.9,3.9,0,0,1-2.2.7c-1.2,0-2-1-2-2.5s0.8-2.9,2.2-2.9,2.1,0.8,2.1,2.5v0.3h-3.5Zm1.4-2.1a1.4,1.4,0,0,0-1.4,1.6h2.6C174.1,24.3,173.7,23.7,172.9,23.7Zm-54.7,4.8c-1.7,0-2.8-1.4-2.8-3.8s1.1-3.8,3-3.8l1.9,0.3-0.2.7-1.7-.2c-1.3,0-2.1,1-2.1,2.9s0.7,3.1,2,3.1l2-.4,0.2,0.6A6.9,6.9,0,0,1,118.2,28.5Zm6.2-4.6a3.6,3.6,0,0,0-1.5.3v4.2h-0.8V23h0.8v0.6a2.6,2.6,0,0,1,1.5-.5h0.3v0.8h-0.3Zm9.7,4.5V27.9a3.3,3.3,0,0,1-1.6.6,1.4,1.4,0,0,1-1.3-1.6,1.3,1.3,0,0,1,1-1.5H134V25c0-.9,0-1.2-1-1.2l-1.5.2V23.4l2-.4a1.4,1.4,0,0,1,1.2.4,2.3,2.3,0,0,1,.3,1.5v3.3h-0.8Zm0-2.6c-1.7.1-2.1,0.4-2.1,1.1a0.7,0.7,0,0,0,.7.9,4.8,4.8,0,0,0,1.4-.4V25.8h0Zm4.1,2.7a1,1,0,0,1-.9-0.5,2.3,2.3,0,0,1-.1-1V23.8h-0.9V23.2h0.9V21.8h0.8v1.4h1.7v0.6h-1.7v2.8a2,2,0,0,0,.1,1l0.4,0.2,1.1-.2,0.2,0.5A3.9,3.9,0,0,1,138.2,28.5Zm3.4-6a0.5,0.5,0,0,1-.5-0.5A0.5,0.5,0,1,1,141.6,22.5Zm-0.4,5.9V23.2h0.8v5.2h-0.8Zm5.1,0h-0.9l-1.9-5.2h0.9l1.5,4.5,1.5-4.5H148Zm12.6,0V20.7h0.9v7h3.5v0.7h-4.4Zm6.2-5.9a0.5,0.5,0,0,1-.5-0.5,0.5,0.5,0,0,1,.5-0.5,0.5,0.5,0,0,1,.5.5A0.5,0.5,0,0,1,165,22.5Zm-0.4,5.9V23.2h0.8v5.2h-0.8Zm5.5-7.2h-0.9c-0.6,0-.7.2-0.7,0.9v1.1h1.7v0.6h-1.7v4.6h-0.8V23.8h-0.9V23.2h0.9v-1a1.8,1.8,0,0,1,.2-1.2,1.2,1.2,0,0,1,1-.5l1.2,0.2v0.5Zm-69.8-.6h0.9v3.3a2.2,2.2,0,0,1,1.6-.7,1.5,1.5,0,0,1,1.6,1.7v3.5h-0.8V25.1a1,1,0,0,0-1.1-1.1,1.5,1.5,0,0,0-1.3.6v3.8h-0.9V20.6h0Z" fill="#fff"/></svg>